<?xml version="1.0" encoding="UTF-8"?><svg id="Capa_2" xmlns="http://www.w3.org/2000/svg" viewBox="0 0 609.41 242.3"><defs><style>.cls-1{font-family:BebasKai, 'Bebas Kai';font-size:32.67px;}.cls-1,.cls-2{fill:#f6d8b8;}.cls-3{letter-spacing:0em;}.cls-4{letter-spacing:0em;}.cls-5{letter-spacing:0em;}.cls-6{letter-spacing:0em;}.cls-7{letter-spacing:0em;}.cls-8{letter-spacing:0em;}.cls-9{letter-spacing:0em;}</style></defs><g id="Capa_1-2"><text class="cls-1" transform="translate(247.29 235.64) scale(.97 1)"><tspan x="0" y="0">Geo</tspan><tspan class="cls-9" x="40.6" y="0">p</tspan><tspan class="cls-4" x="54.06" y="0">oéti</tspan><tspan class="cls-8" x="99.6" y="0">c</tspan><tspan class="cls-3" x="112.83" y="0">a</tspan><tspan class="cls-6" x="126.42" y="0">s</tspan><tspan x="137.75" y="0"> </tspan><tspan class="cls-5" x="143.96" y="0">d</tspan><tspan class="cls-6" x="157.87" y="0">a</tspan><tspan x="171.11" y="0"> </tspan><tspan class="cls-7" x="177.31" y="0">B</tspan><tspan class="cls-5" x="190.9" y="0">a</tspan><tspan x="204.29" y="0">ci</tspan><tspan class="cls-6" x="224.78" y="0">a</tspan><tspan x="238.01" y="0" xml:space="preserve"> do Rio Doce</tspan></text><path class="cls-2" d="M400.07,126.97l-.16.95-.12.71h-.04c-.34,1.44-.97,2.78-1.91,3.96-3.23,4.09-7.58,4.09-11.79,4.09-2.27,0-4.61,0-6.72.67-7.87,2.49-8.03,12.58-8.15,19.94v.76c-.07,3.4.11,6.88.29,10.23.19,3.67.4,7.47.28,11.23l-.04,1.3c-.13,5.03-.28,10.72-2.99,15.06-.53.85-1.15,1.62-1.84,2.3-2.08,2.03-4.94,3.11-8.11,3.11-.76,0-1.53-.08-2.32-.2v.02s-.54-.1-.54-.1c0,0,0,0,0,0l-1.18-.23.05-.07c-1.09-.29-2.14-.65-3.09-1.14-5.38-2.79-6.32-7.97-6.44-13.23h0s-.02-1.03-.02-1.03c-.08-4.86-.32-9.83-.55-14.62-.19-4.04-.39-8.21-.49-12.32h0s-.01-.45-.01-.45l-.04-1.57h.02c-.04-2.4-.03-4.77.02-7.07l-.02.02.05-1.57v-.44s.02,0,.02,0c.11-3.38.3-6.2.58-8.78,1.33-12.05,10.21-17.96,17.43-20.8,13.55-5.32,24.39-5.56,32.28-.73v-.02s.72.45.72.45c.02.01.03.03.05.04l.61.4-.03.04c2.83,2.2,4.38,5.62,4.15,9.1h.08Z"/><path class="cls-2" d="M476.94,192.41l-1.07,1.47s0,0,0,.01l-.22.29h-.04c-3.53,4.41-9.7,7.17-14,8.19-4.5,1.07-9.07,1.6-13.57,1.6-10.07,0-19.78-2.63-27.48-7.64-8.67-5.64-14.43-14.08-16.67-24.39-.37-1.72-.66-3.62-.89-5.6l-.03.02-.12-1.18-.06-.58h.01c-.29-3.3-.31-6.62-.05-9.87h-.01s.05-.59.05-.59l.11-1.18.04.02c.51-4.56,1.52-8.75,3.06-12.42,2.55-6.11,6.5-11.23,11.71-15.25v-.02l.28-.21,1.49-1.13v.07c3.56-2.44,7.54-4.28,11.85-5.47l-.05-.03,1.75-.41.35-.08h.01c7.58-1.69,15.46-1.35,22.83,1.04,15.05,4.86,22.05,15.87,20.25,31.85-1.53,13.58-18.91,16.03-25.45,16.95-1.52.21-3.07.37-4.63.52-3.91.39-7.94.79-11.59,2.2-1.39.54-2.38,1.41-2.85,2.53-.44,1.03-.42,2.23.05,3.47h0c.35.92.91,1.77,1.66,2.52,1.35,1.34,3.11,2.4,5.21,3.14,7.69,2.7,18.41.41,25.12-2.85.45-.22.96-.4,1.47-.58l.02-.03.34-.11,1.74-.55-.06.15c3.36-.59,7.31.06,9.26,3.7,1.92,3.58,1.93,7.17.05,10.48h.11ZM444.53,137.45c-4.77.06-9.31,1.69-12.46,4.49-1.74,1.55-2.58,3.6-2.31,5.62.26,1.93,1.54,3.58,3.52,4.52,5.18,2.47,14.02.18,18.7-1.98.95-.44,1.88-1.05,2.69-1.78h0c1.4-1.26,2.21-2.68,2.27-3.98.05-1-.34-1.97-1.16-2.88-.72-.79-1.59-1.47-2.69-2.08-2.33-1.29-5.39-1.97-8.57-1.94Z"/><path class="cls-2" d="M609.35,184.69l.05-.02-.1,1.35-.04.51h-.02c-.3,3.52-1,6.36-2.12,8.64l.03.04-.27.49c-.07.15-.1.22-.14.29-.02.04-.05.07-.08.11l-.37.68-.05-.06c-.54.82-1.13,1.57-1.81,2.19-1.89,1.73-4.35,2.37-6.89,2.37-3.9,0-7.99-1.5-10.55-2.85-6.1-3.24-5.54-13.62-5.14-21.21.08-1.58.17-3.08.17-4.27v-26.86c0-2.47-1.23-5.19-3.3-7.29-2.8-2.85-7.21-4.48-10.73-1.71-6.85,5.39-6.45,15.64-6.11,24.67.07,1.84.14,3.6.14,5.23,0,1.23.02,2.54.04,3.91.15,10,.33,22.44-6.13,27.39-3.19,2.45-7.7,2.74-13.39.86-4.76-1.57-5.98-5.28-6.44-8.1h-.01s-.05-.38-.05-.38l-.27-1.84.11.07c-.08-1.18-.13-2.36-.13-3.52,0-1.53-.02-3.06-.03-4.58v-1.71c-.05-5.45-.09-11.1.03-16.64.03-1.52.17-3.19.31-4.96.31-3.89.66-8.3-.05-12.08-.53-2.83-1.57-4.96-3.19-6.53-1.09-1.06-2.22-1.86-3.36-2.37-2.11-.95-4.22-.87-6.26.24-3.45,1.87-6.44,6.64-7.44,11.87-1.38,7.21-.78,14.59-.2,21.73.28,3.48.57,7.09.64,10.65.03,1.63-.04,3.23-.19,4.77h.02s-.06.57-.06.57l-.13,1.22-.04-.02c-.59,4-1.84,7.13-3.73,9.33l.1.03-1.06.96s0,0,0,0l-.34.31-.05-.02c-1.85,1.51-4.11,2.34-6.76,2.41-2.39.07-8.32-.21-11.84-4-3.36-3.62-3.11-8.91-2.89-13.59.04-.79.07-1.56.09-2.3.24-10.32-.11-20.37-.47-28.83-.12-2.95-.04-5.8.23-8.53h-.02s.05-.51.05-.51l.15-1.39.04.03c.85-6.29,2.86-11.54,5.99-15.64h-.08s.98-1.15.98-1.15l.29-.34h.04c2.68-3,6.04-5.33,10.03-6.89,11.07-4.34,24.52-4.16,36,.48,1,.4,2.05,1.05,3.16,1.73,1.88,1.15,4,2.44,5.42,2.13.29-.07.59-.17.89-.27h0c1.42-.5,2.96-1.41,4.45-2.28.9-.53,1.81-1.06,2.72-1.52l-.1-.06,1.87-.75c12.22-4.48,29.71-3.65,39.51,6.63,8.44,8.85,8.16,22,7.92,33.6-.04,1.93-.08,3.83-.08,5.66,0,2.1.23,4.82.48,7.71.38,4.48.78,9.48.56,14.2Z"/><path class="cls-2" d="M426.68,53.08c-.12,1.22-.33,2.48-.6,3.8h.03s-.27,1.2-.27,1.2c-.04.17-.07.35-.11.52-4.3,16.6-16.52,32.09-31.88,40.41-7.93,4.3-16.26,6.47-24.38,6.47-5.23,0-10.38-.9-15.29-2.72-5.08-1.88-9.78-4.67-13.96-8.29-.45-.39-.89-.78-1.32-1.19-13.83-12.97-18.12-35.31-10.66-55.59,3.59-9.77,9.47-18.38,17.02-24.96v-.02s.33-.29.33-.29l1.16-.99v.04c1.97-1.59,4.02-3.04,6.14-4.32l-.04-.02,1.32-.75.38-.21h.01c14.02-7.79,30.17-8.23,44.46-1.21h.01s.35.17.35.17l1.48.74-.03.02c.27.14.55.28.82.43,3.68,2.07,7.01,4.58,9.9,7.45.15.15.3.32.45.47v-.05s1.16,1.26,1.16,1.26l.27.29h0c7.14,7.98,12.01,18.73,13.15,29h.02l.07.78.08.88h-.04c.17,2.31.19,4.55-.01,6.66ZM372.64,73.75c3.97.79,7.81-.3,10.8-3.05.74-.68,1.39-1.4,1.97-2.2,1.03-1.4,2.02-3.02,2.93-4.83,4.17-8.27,6.46-20.74-.78-28.65-2.92-3.18-6.61-4.55-10.69-3.96-7.35,1.07-14.85,8.31-16.72,16.12-.52,2.19-.84,4.36-.94,6.45-.12,2.51.08,4.89.58,7.06.3,1.27.74,2.52,1.33,3.74h0c2.32,4.8,6.73,8.37,11.51,9.32Z"/><path class="cls-2" d="M502.33,74.76c0,8.46-3.09,15.16-9.19,19.91-6.03,4.7-14.98,7.08-26.6,7.08-4.54,0-8.73-.34-12.47-1.01-1.51-.27-2.98-.63-4.4-1.03h-.01s-.46-.13-.46-.13c0,0,0,0,0,0l-1.3-.39.02-.02c-3.13-1.07-5.75-2.44-7.8-4.11v.08s-1.1-1.04-1.1-1.04l-.32-.31v-.03c-.77-.78-1.44-1.6-1.98-2.45-2.14-3.44-2.04-7.66.29-11.02,2.33-3.37,6.18-4.85,10.06-3.86,2.12.54,4.26,1.3,6.33,2.03,6.38,2.26,12.41,4.4,18.71,1.21.8-.4,1.56-.93,2.2-1.51h0c1.24-1.13,1.95-2.41,1.99-3.6.04-.96-.36-1.89-1.15-2.78l-.39-.38s0,0,0,0h0c-2.7-2.61-7.18-3.33-11.13-3.97-.95-.15-1.86-.3-2.71-.46-8.38-1.63-14.67-4.46-19.24-8.65-2.43-2.23-4.21-5.04-5.33-8.32h-.03s-.11-.35-.11-.35c0,0,0,0,0,0l-.59-1.85.1.05c-.5-2.1-.76-4.35-.76-6.72,0-.02,0-.03,0-.05l-.05.04.12-1.89h0s.02-.36.02-.36l.02-.02c1.05-13.41,11.75-22.49,28.75-24.36h0s.32-.05.32-.05l2-.21-.07.08c1.65-.11,3.3-.15,4.96-.12l-.07-.08,1.99.11s.02,0,.03,0l.3.02h0c3.7.24,7.33.83,10.52,1.74,4.65,1.32,12.41,5.34,14.75,10.99,1.03,2.49.9,5.01-.39,7.48-1.59,3.04-4.24,4.46-8.04,4.34v.03l-.87-.07-.74-.07v-.03c-2.06-.26-4.14-.83-6-1.36-.6-.17-1.19-.33-1.74-.48-.65-.17-1.65-.37-2.73-.54-6.35-1-14.58-1.12-16.89,1.85-.74.95-.81,2.21-.21,3.84,1.65,4.46,8.51,5.65,13.05,6.43.6.1,1.17.2,1.69.3,6.74,1.27,14.41,3.36,20.15,9.14,4.34,4.36,6.53,10.06,6.53,16.93Z"/><path class="cls-2" d="M288.63,65.2c-7.71,6.85-8.32,20.3,2.32,24.72,5.61,2.33,12.66.09,16.04-5.09.98-1.51,1.67-3.21,2.18-4.95.37-1.27.66-2.58.61-3.91-.37-9.85-13.77-17.33-21.15-10.77Z"/><path class="cls-2" d="M336.12,112.48c-.62-.72-1.32-1.37-2.15-1.9-1.5-1.22-2.99-2.25-4.3-3.07-9.05-5.62-18.27-7.3-26.91-8.89-10.89-2-21.35-3.21-30.3,1.32-7.92,4.01-19.94,13.11-21.59,22.72-.74,4.3.35,9.31,2.94,12.8,1.43,1.92,3.73,3.32,6.05,2.95,2.19-.35,3.89-2.17,5.14-4.06,1.72-2.59,1.58-2.16,3.29-4.76,2.25-3.41,5.31-6.24,8.84-8.17,3.26-1.78,5.81-1.35,6.23,2.8.86,8.64-.24,13.96-.24,22.61,0,9.11-.33,18.21-.36,27.32v1.03s0,.78,0,.78v.59c-.01,3.09-.02,6.17-.04,9.26v.55s-.01,2.45-.01,2.45c-.02,4.1-.04,10.3,4.33,13.51,2.75,2.02,6.35,2.52,9.71,2.52,1.1,0,2.17-.05,3.18-.13,1.47-.1,3.35-.37,4.8-1.53,1.39-1.12,2.12-2.81,2.65-4.37,2.64-5.46,2.6-12.36,2.57-18.46,0-1.04-.01-2.06,0-3.05.06-7.73.07-15.6.02-23.39-.01-1.8-.03-3.6-.06-5.4l-.03-2.43-.03-2.73c-.02-1.76-.03-3.51-.06-5.27-.07-4.23.25-6.35,1.09-10.56.31-1.58,1.11-3.12,2.44-3.96,2.1-1.32,4.92-.51,6.88,1.02,1.96,1.53,1.99,1.27,3.78,3.02,3.21,3.16,7.64,4.96,12.07,4.92,3.57-.03,5.96-1.85,6.48-5.55.8-5.76-2.49-10.75-6.4-14.49Z"/><path class="cls-2" d="M82.81,117.57c-.32.06-.66.18-1.05.37-3.94,1.93-3.38,7.46-3.19,11.1.18,3.57-5.36,3.55-5.54,0-.3-5.63-.01-12.02,5.18-15.45,1.98-1.31,4.31-1.81,6.47-1.45-.66,1.79-1.28,3.6-1.88,5.42Z"/><path class="cls-2" d="M90.3,100.11c-.97,1.67-1.87,3.38-2.7,5.12-3.4-2.93-8.17-2.78-12.18.66-5.76,4.95-6.18,13.44-6.61,20.47-.22,3.55-5.77,3.56-5.54,0,.55-8.72,1.42-18.62,8.57-24.66,5.31-4.48,12.84-5.76,18.46-1.59Z"/><path class="cls-2" d="M99.99,87.32c-1.32,1.33-2.57,2.73-3.76,4.18-1.87-2.36-4.32-4.15-7.45-4.73-4.65-.86-9.45.95-13.26,3.52-8.99,6.07-12.81,17.45-18.36,26.29-1.9,3.02-6.69.23-4.78-2.8,5.7-9.07,9.63-19.93,18.27-26.76,6.42-5.07,15.38-7.94,23.19-4.39,2.46,1.12,4.48,2.74,6.14,4.69Z"/><path class="cls-2" d="M109.6,79.61c-1.59.99-3.12,2.06-4.58,3.22-3.18-4-7.59-6.83-13.38-7.83-21.88-3.8-36.28,16.55-43.53,34.21-1.34,3.26-6.7,1.82-5.34-1.47,4.9-11.95,11.45-23.6,22.06-31.38,8.28-6.07,18.99-8.66,29.1-6.54,6.6,1.39,11.86,4.91,15.67,9.8Z"/><path class="cls-2" d="M118.99,174.86c-.31,3.53-5.86,3.55-5.54,0,1.26-14.47,1.62-29.01,1-43.52-.52-12.12-1.07-24.84-3.93-36.68-.46-1.89-1.04-3.71-1.75-5.41.96-.8,1.96-1.55,2.99-2.26.55-.38,1.1-.73,1.66-1.08.72,1.56,1.32,3.21,1.82,4.91,1.72,5.9,2.36,12.12,3.04,18.21.81,7.22,1.37,14.46,1.69,21.71.65,14.72.31,29.45-.97,44.12Z"/><path class="cls-2" d="M121.95,71.77c-1.79.63-3.54,1.37-5.23,2.23.34-.17-5.1-4.17-5.63-4.48-2.84-1.69-5.83-3.13-8.91-4.3-7.07-2.69-15.26-4.5-22.84-3.52-7.69,1-15.03,4.31-21.19,8.97-10.39,7.85-17.44,19.22-23.08,30.76-1.56,3.21-6.34.39-4.78-2.8,6.85-14.04,16.03-27.79,29.76-35.89,9.38-5.54,19.99-8.02,30.77-6.15,6.01,1.04,11.87,2.94,17.35,5.6,2.74,1.33,5.39,2.85,7.92,4.55.54.36,5.78,5.05,5.85,5.02Z"/><path class="cls-2" d="M135.07,174.62c.45,3.53-5.1,3.49-5.54,0-2.09-16.44-.12-32.92.13-49.4.22-13.88-.73-28.51-7.05-41.13-.21-.42-.43-.84-.66-1.26,1.67-.8,3.41-1.48,5.2-2.01.22.42.43.86.64,1.29,13.96,28.97,3.39,61.97,7.28,92.53Z"/><path class="cls-2" d="M142.23,80.28c-2.17-5.08-6.07-9.62-9.43-13.97-3.18-4.12-6.86-7.87-10.95-11.09-6.56-5.17-14.16-8.97-22.26-11.05-14.58-3.74-30.25-2.11-43.54,5.04-14.22,7.66-25.03,20.98-29.68,36.42-1.03,3.42,4.32,4.88,5.34,1.47,8.11-26.92,35.94-43.94,63.58-38.24,14.08,2.9,23.93,7.76,32.15,19.55.4.57.79,1.15,1.17,1.74,3.94,1.81,5.5,3.11,9.53,6.62"/><path class="cls-2" d="M144.32,171.98c-.59,3.51-5.93,2.01-5.34-1.48,3.28-19.56,7.74-41.89,5.81-61.78-.73-7.5-3.9-14.23-6.45-21.36,2.97.7,8.28,7.02,10.4,9.53h0c6.07,24.62-.27,50.35-4.42,75.09Z"/><path class="cls-2" d="M165.03,102.57c-2.32-1.72-4.53-3.57-6.65-5.52-.22-.2-.44-.41-.66-.62h0c-9.75-28.9-33.99-55.41-64.49-60.97-16.97-3.09-35.01.82-49.12,10.75-12.93,9.1-22.16,22.95-25.92,38.27-.85,3.47-6.19,1.99-5.34-1.47,4.54-18.51,16.64-34.94,33.12-44.58,16.01-9.36,35.8-11.91,53.72-7.2,18.06,4.74,34.1,16.94,45.67,31.34,9.58,11.93,16.18,25.61,19.68,39.99Z"/><path class="cls-2" d="M158.9,169.67c-1.46,3.25-6.23.43-4.78-2.8,8.12-18.1,10.57-38.67,6.84-58.15,1.95,1.47,3.97,2.85,6.04,4.14,2.65,18.99.03,38.7-8.1,56.81Z"/><path class="cls-2" d="M38.95,34.93c42.49-19.95,80.46-6.75,105.24,17.5,3.33,3.26,6.74-1.79,4.07-4.1-20.23-17.54-30.93-23.2-48.27-26.82-22.3-4.65-45.62-.95-63.84,8.63-3.16,1.66-.36,6.44,2.8,4.78h0Z"/><path class="cls-2" d="M84.72,16.83c19.08-5.92,40.55.67,53.16,16.14,2.25,2.77,6.15-1.18,3.92-3.92-13.78-16.9-37.75-24.02-58.55-17.56-3.39,1.05-1.95,6.4,1.47,5.34h0Z"/><path class="cls-2" d="M92.49,7.08c15.92-4.47,33.39.95,44.12,13.48,2.32,2.71,6.23-1.22,3.92-3.92C128.56,2.67,108.71-3.23,91.02,1.74c-3.43.96-1.97,6.31,1.47,5.34h0Z"/><path class="cls-2" d="M174.35,108.58c-2.72-11.58-7.44-22.71-14.12-32.76-1.98-2.98,2.82-5.75,4.78-2.8,7.78,11.7,13.05,24.93,15.68,38.65-2.16-.92-4.28-1.96-6.34-3.1Z"/><path class="cls-2" d="M175.07,171.87c-1.32,3.27-6.69,1.83-5.34-1.47,6.78-16.73,8.83-35,6.34-52.64,1.93.89,3.9,1.69,5.91,2.41,1.95,17.44-.28,35.33-6.91,51.7Z"/><path class="cls-2" d="M193.11,115.61c-1.98-.41-3.94-.91-5.87-1.51-1.95-11.75-5.28-23.29-9.95-34.37-1.39-3.29,3.98-4.71,5.34-1.47,5.05,11.98,8.56,24.55,10.49,37.35Z"/><path class="cls-2" d="M193.67,157.87c-.44,3.5-5.98,3.53-5.54,0,1.48-11.93,1.55-23.93.22-35.77.2.06.41.1.62.15,1.69.41,3.39.74,5.11,1.02h0c1.15,11.49,1.02,23.1-.41,34.6Z"/><path class="cls-2" d="M200.72,116.65c-1.52-12.65-4.84-25.08-9.96-36.84-1.41-3.24,3.37-6.06,4.78-2.8,5.52,12.7,9.15,26.09,10.74,39.74-1.87.06-3.73.02-5.57-.1Z"/><path class="cls-2" d="M206.2,149.47c-.44,3.5-5.98,3.53-5.54,0,1.05-8.45,1.29-16.97.74-25.43,1.85.09,3.7.1,5.55.02.54,8.44.3,16.94-.75,25.4Z"/><path class="cls-2" d="M208.9,79.57c1.5-.48,2.9.46,3.4,1.94,3.66,10.66,5.95,21.73,6.82,32.91-1.81.59-3.63,1.12-5.47,1.5-.69-9.91-2.52-19.72-5.5-29.27,0,0-2.53-6.03.74-7.09Z"/><path class="cls-2" d="M218.92,137.49c-.34,3.53-5.89,3.55-5.54,0,.46-4.71.65-9.43.59-14.12,1.87-.3,3.71-.68,5.54-1.17.1,5.1-.1,10.2-.59,15.29Z"/><path class="cls-2" d="M223.7,120.9c1.99-.7,4.01-1.5,6.05-2.17-.39,2.62-1,5.21-1.84,7.76-1.11,3.38-6.45,1.93-5.34-1.47.44-1.36.82-2.73,1.13-4.12Z"/><path class="cls-2" d="M218.76,89.43c-1.81-3.08,2.98-5.87,4.78-2.8,4.33,7.38,6.62,15.74,6.74,24.16-1.86.48-3.71,1.08-5.55,1.71.2-8.01-1.81-16-5.97-23.08Z"/><path class="cls-2" d="M74.55,140.78c-1.07,2.22-2.23,4.36-3.49,6.46.22-2.39.38-4.78.47-7.19.09-2.46,2.78-3.23,4.37-2.28-.42,1.01-.87,2.01-1.35,3Z"/><path class="cls-2" d="M49.04,128.24c-4.59,11.61-4.86,24.55-.82,36.36,1.15,3.35,6.5,1.91,5.34-1.47-3.76-11-3.45-22.61.82-33.41,1.31-3.32-4.04-4.76-5.34-1.47h0Z"/><path class="cls-2" d="M58.99,172.98c.28-.24.55-.48.82-.73-1.65,5.31-4,10.41-7.02,15.18-1.91,3-6.7.22-4.78-2.8,2.38-3.74,4.31-7.71,5.78-11.84,1.32,1.23,3.46,1.69,5.2.18Z"/><path class="cls-2" d="M62.43,159.13c-2.08,2.4-4.3,4.67-6.66,6.83,1.79-7.87,1.94-16.11.33-24.16-.7-3.49,4.64-4.97,5.34-1.48,1.25,6.23,1.57,12.57.99,18.8Z"/><path class="cls-2" d="M27.29,93.1l-.84-.84c-.5-.5-1.25-.81-1.96-.81-.38-.01-.74.07-1.07.24-.34.11-.64.3-.89.57-.48.53-.84,1.22-.81,1.96s.28,1.43.81,1.96l.84.84c.5.5,1.25.81,1.96.81.38.01.74-.07,1.07-.24.34-.11.64-.3.89-.57.48-.53.84-1.22.81-1.96s-.28-1.43-.81-1.96h0Z"/><path class="cls-2" d="M22.51,105.78h-.42c-.38-.01-.74.07-1.07.24-.34.11-.64.3-.89.57-.27.25-.46.55-.57.89-.17.33-.25.69-.24,1.07l.1.74c.13.47.37.88.71,1.22l.56.43c.43.25.9.38,1.4.38h.42c.38.01.74-.07,1.07-.24.34-.11.64-.3.89-.57.27-.25.46-.55.57-.89.17-.33.25-.69.24-1.07l-.1-.74c-.13-.47-.37-.88-.71-1.22l-.56-.43c-.43-.25-.9-.38-1.4-.38h0Z"/><path class="cls-2" d="M14,164.53c3.57,0,3.57-5.54,0-5.54s-3.57,5.54,0,5.54h0Z"/><path class="cls-2" d="M62.38,135.22c3.08,0,3.08-4.79,0-4.79s-3.08,4.79,0,4.79h0Z"/><path class="cls-2" d="M52.66,124.28c3.1,0,3.1-4.81,0-4.81s-3.1,4.81,0,4.81h0Z"/><path class="cls-2" d="M43.23,116.85c2.49,0,2.49-3.87,0-3.87s-2.49,3.87,0,3.87h0Z"/><path class="cls-2" d="M28.86,108.02c2.85,0,2.86-4.44,0-4.44s-2.86,4.44,0,4.44h0Z"/><path class="cls-2" d="M19.88,173.34c3.57,0,3.57-5.54,0-5.54s-3.57,5.54,0,5.54h0Z"/><path class="cls-2" d="M111.74,188.02c3.57,0,3.57-5.54,0-5.54s-3.57,5.54,0,5.54h0Z"/><path class="cls-2" d="M120.13,187.18c3.57,0,3.57-5.54,0-5.54s-3.57,5.54,0,5.54h0Z"/><path class="cls-2" d="M86.41,216.71v-.84c0-.71-.31-1.46-.81-1.96-.25-.27-.55-.46-.89-.57-.33-.17-.69-.25-1.07-.24-.72.03-1.46.27-1.96.81-.5.54-.81,1.21-.81,1.96v.84c0,.71.31,1.46.81,1.96.25.27.55.46.89.57.33.17.69.25,1.07.24.72-.03,1.46-.27,1.96-.81.5-.54.81-1.21.81-1.96h0Z"/><path class="cls-2" d="M15.56,92.4c-.14-.28-.28-.56-.42-.84-.17-.32-.41-.58-.71-.78-.27-.24-.58-.41-.94-.5-.37-.12-.74-.13-1.1-.05-.37.02-.71.13-1.03.33-.59.38-1.11.95-1.27,1.66l-.1.74c0,.5.13.97.38,1.4l.42.84c.17.32.41.58.71.78.27.24.58.41.94.5.37.12.74.13,1.1.05.37-.02.71-.13,1.03-.33.59-.38,1.11-.95,1.27-1.66.03-.25.07-.49.1-.74,0-.5-.13-.97-.38-1.4h0Z"/><path class="cls-2" d="M2.68,223.26c3.57,0,3.57-5.54,0-5.54s-3.57,5.54,0,5.54h0Z"/><path class="cls-2" d="M154.95,70.14c3.57,0,3.57-5.54,0-5.54s-3.57,5.54,0,5.54h0Z"/><path class="cls-2" d="M231.3,96.15h.42c.38.01.74-.07,1.07-.24.34-.11.64-.3.89-.57.27-.25.46-.55.57-.89.17-.33.25-.69.24-1.07l-.1-.74c-.13-.47-.37-.88-.71-1.22l-.56-.43c-.43-.25-.9-.38-1.4-.38h-.42c-.38-.01-.74.07-1.07.24-.34.11-.64.3-.89.57-.27.25-.46.55-.57.89-.17.33-.25.69-.24,1.07l.1.74c.13.47.37.88.71,1.22l.56.43c.43.25.9.38,1.4.38h0Z"/><path class="cls-2" d="M237.34,112.34l.4-.12c.37-.09.67-.33.89-.72.27-.29.45-.71.55-1.24.13-.51.15-1.07.08-1.7,0-.62-.12-1.25-.34-1.9l-.48-1.23c-.37-.76-.82-1.39-1.33-1.88l-.77-.58c-.55-.3-1.06-.38-1.54-.23l-.4.12c-.37.09-.67.33-.89.72-.27.29-.45.71-.55,1.24-.13.51-.15,1.07-.08,1.7,0,.62.12,1.25.34,1.9.16.41.32.82.48,1.23.37.76.82,1.39,1.33,1.88l.77.58c.55.3,1.06.38,1.54.23h0Z"/><path class="cls-2" d="M106.77,103.08c-.65-3.07-1.53-6.26-2.83-9.24-1.43,1.56-2.76,3.2-4,4.92,1.4,4.18,2.09,8.65,2.78,12.95.96,6.01,1.58,12.07,1.9,18.15.55,10.58.28,21.23-1.16,31.73-2.21,16.11-5.91,32.18-20.07,42.05-7.75,5.4-16.39,9.37-25.01,13.14-9.08,3.97-17.36,8.84-27.59,11.02-6.52,1.38-12.79,2.28-15.67-4.74-2.18-5.32-1.89-11.68-1.22-17.26.86-7.19,3.16-14.15,6.58-20.52,1.68-3.14-3.1-5.94-4.78-2.8-3.9,7.28-6.38,15.11-7.34,23.32-.8,6.88-.81,14.53,2.34,20.87,2.76,5.57,8.46,8.45,14.58,7.98,11.37-.87,21.37-6.6,31.45-11.32,10.23-4.79,21.45-8.86,30.6-15.61,6.14-4.53,11.19-10.53,14.63-17.34,3.19-6.32,4.57-13.33,5.8-20.25,3.47-19.56,3.51-39.87.42-59.48-.41-2.54-.88-5.07-1.41-7.59Z"/><path class="cls-2" d="M99.1,124.44c-.52-5.83-1.07-12.65-3.81-18.15-1.23,2.35-2.28,4.77-3.23,7.23,1.38,5.07,1.58,10.68,1.84,15.68.36,6.9.54,14.29-.66,21.09-1.46,8.26-2.7,16.59-4.12,24.81-1.29,7.44-4.43,14.48-8.96,20.51-2.14,2.85,2.67,5.62,4.78,2.8,2.93-3.9,5.44-8.22,7.15-12.8,1.85-4.95,2.44-10.22,3.37-15.38.98-5.5,2.14-10.97,2.93-16.5,1.38-9.68,1.58-19.55.71-29.29Z"/><path class="cls-2" d="M64.98,191.9c3.28-5.13,4.71-11.06,6.3-16.92.99-3.64,2.01-7.44,2.81-11.18.42-1.96,2.08-8.41,2.08-8.41,0,0-.37-4.06.47-5.41-1.33,2.14-4.94,9.35-4.94,9.35l-3.7,6.16s-2.35,10.76-4.43,15.86c-2.35,5.78-5.88,11.22-10.91,14.91-1.36.99-2.84,1.86-4.49,2.21s-3.48.09-4.78-.97c-1.44-1.17-2.03-3.11-2.2-4.96-.25-2.59.17-5.24,1.19-7.63.65-1.53,1.56-2.98,1.88-4.61.89-4.47-2.53-8.33-3.65-12.41-1.31-4.76-1.83-10.01-1.91-14.93-.17-10.57,2.08-21.22,6.17-30.95,1.38-3.28-3.98-4.72-5.34-1.47-4.07,9.68-6.29,20.21-6.22,30.72.03,4.83.45,9.73,1.45,14.47.87,4.16,3.6,7.93,3.72,12.24.07,2.71-.99,5.31-1.71,7.92-.99,3.59-1.33,7.47-.15,11,1.56,4.67,5.95,8.03,10.97,7.39,6.3-.8,12.33-5.59,16.09-10.5.47-.61.9-1.23,1.31-1.87Z"/><path class="cls-2" d="M89.6,117.03c.27,1.17-3.61,10.64-3.55,12.01.28,6.44-.25,9.91-2.11,17.39-1.97,7.94-2.87,16.08-4.48,24.09-2.78,13.85-8.01,27.02-21.39,33.42-6.17,2.95-12.33,6.29-18.3,9.66-3.29,1.86-8.54,4.62-11.01.05-3.39-6.3-1.07-16.17,1.37-22.46.77-2,1.71-3.95,2.12-6.05,1.07-5.58-1.69-11.31-2.68-16.72-1.04-5.68-1.57-11.45-1.58-17.23-.01-11.54,2.05-23.08,6.13-33.88.57-1.52,1.19-3.02,1.84-4.51,1.42-3.23-3.35-6.06-4.78-2.8-8.59,19.59-10.89,41.28-6.49,62.2.81,3.85,2.3,7.28,1.85,11.38-.64,5.82-3.95,10.93-4.78,16.7-.79,5.46-.45,12.11,2.63,16.84,2.17,3.33,5.44,5.27,9.46,4.84,5.29-.57,10.74-4.55,15.4-6.94,6.31-3.24,12.84-6.27,18.47-10.66,8.19-6.39,12.98-16.11,15.48-26.01,2.58-10.22,4.46-20.59,6.46-30.94,1.98-10.2,2.33-20.03-.06-30.38Z"/></g></svg>